<svg id="Layer_1" data-name="Layer 1" xmlns="http://www.w3.org/2000/svg" viewBox="0 0 545.41 95.09"><defs><style>.cls-1{fill:#231f20;}</style></defs><title>MuzzleloaderCom_Logo_BW_Horz</title><path class="cls-1" d="M41.7,72.57V56.4H55.3c1.75,0,2.55.64,3.08,2.44l2.74,9V42.37a31.65,31.65,0,0,0-30.21,30.2Z" transform="translate(-14.97 -26.43)"/><path class="cls-1" d="M63.93,68.58l2.78-9.74C67.24,57,68,56.4,69.79,56.4H83.34V72.57H94.13a31.65,31.65,0,0,0-30.2-30.2Z" transform="translate(-14.97 -26.43)"/><path class="cls-1" d="M83.34,75.38V91.55H72.26V75.38h-.84L66.89,89.19c-.51,1.53-1.1,2.36-2.77,2.36h-.19v14a31.64,31.64,0,0,0,30.2-30.2Z" transform="translate(-14.97 -26.43)"/><path class="cls-1" d="M61.12,91.55h-.49c-1.7,0-2.32-.91-2.78-2.38L53.33,75.38h-.84V91.55H42.15a.45.45,0,0,1-.45-.45V75.38H30.91a31.64,31.64,0,0,0,30.21,30.2Z" transform="translate(-14.97 -26.43)"/><path class="cls-1" d="M61.12,37.73h0V26.43L59,37.87A36.34,36.34,0,0,0,26.41,70.49L15,72.57H28.59A34,34,0,0,1,61.11,40.05h0Z" transform="translate(-14.97 -26.43)"/><path class="cls-1" d="M98.63,70.49A36.33,36.33,0,0,0,66,37.87L63.92,26.43V40.05h0A34,34,0,0,1,96.45,72.57h13.62Z" transform="translate(-14.97 -26.43)"/><path class="cls-1" d="M98.63,77.46l11.44-2.08H96.45a34,34,0,0,1-32.52,32.52h0v13.61L66,110.08A36.33,36.33,0,0,0,98.63,77.46Z" transform="translate(-14.97 -26.43)"/><path class="cls-1" d="M61.12,107.91h0A34,34,0,0,1,28.59,75.38H15l11.44,2.08A36.34,36.34,0,0,0,59,110.08l2.08,11.44V110.23h0Z" transform="translate(-14.97 -26.43)"/><path class="cls-1" d="M522.72,87.94v1.34h-1.15a.71.71,0,0,1-.71-.71V87.29h1.21A.65.65,0,0,1,522.72,87.94Z" transform="translate(-14.97 -26.43)"/><path class="cls-1" d="M532.88,88.74c-.42.39-.9.54-2.11.54h-4c-1.2,0-1.68-.15-2.11-.54-.69-.65-1.11-1.63-1.11-6.18s.42-5.53,1.11-6.18c.43-.39.91-.54,2.11-.54h4c1.21,0,1.69.15,2.11.54.64.59.94,1.38,1,3.65h-1.5c0-1.83-.26-2.33-.53-2.6s-.43-.29-1.23-.29H527c-.81,0-1,.12-1.23.29s-.61,1-.61,5.13.3,4.82.61,5.13.42.29,1.23.29h3.67c.8,0,1-.12,1.23-.29s.48-.73.55-2.8h1.5C533.81,87.44,533.52,88.15,532.88,88.74Z" transform="translate(-14.97 -26.43)"/><path class="cls-1" d="M542.4,75.84c1.23,0,1.71.15,2.12.54.71.65,1.11,1.63,1.11,6.18s-.4,5.53-1.11,6.18c-.41.39-.89.54-2.12.54h-4.15c-1.21,0-1.69-.15-2.11-.54-.69-.65-1.11-1.63-1.11-6.18s.42-5.53,1.11-6.18c.42-.39.9-.54,2.11-.54Zm-5.22,11.85c.19.17.42.29,1.23.29h3.84c.81,0,1-.12,1.23-.29s.61-1,.61-5.13-.29-4.82-.61-5.13-.42-.29-1.23-.29h-3.84c-.81,0-1,.12-1.23.29s-.62,1-.62,5.13S536.87,87.38,537.18,87.69Z" transform="translate(-14.97 -26.43)"/><path class="cls-1" d="M560.38,89.28h-1.54v-12h-.23l-3.84,11.51c-.13.44-.21.51-.63.51h-.9c-.43,0-.5-.07-.64-.51l-3.84-11.63h-.23V89.28h-1.48V75.84h2.31c.44,0,.57.13.69.54l3.59,11h.23l3.57-11c.12-.41.25-.54.69-.54h2.25Z" transform="translate(-14.97 -26.43)"/><path class="cls-1" d="M516.73,72a6.87,6.87,0,0,0-4.43-1.81l-9.25-1.07a8,8,0,0,1-2-.35c-.12-.12-.27-.47-.27-1.44,0-1.23.2-1.47.2-1.47a5,5,0,0,1,1.47-.11h4.42c.94,0,1.37.06,1.53.22s.28.89.35,2.44l0,.44h9.61v-.46c0-5.68-.85-7.59-2.21-9-1.09-1.09-2.83-1.55-5.82-1.55h-11.9c-2.29,0-4,.55-5.1,1.63-1.67,1.68-2.52,4.42-2.52,8.16s.63,6.18,2.12,7.67a7,7,0,0,0,4.48,1.81l9.16,1.07a5.29,5.29,0,0,1,2,.4s.26.31.26,1.44-.18,1.58-.25,1.65-.38.19-1.94.19H502.2a4,4,0,0,1-1.75-.22c-.08-.08-.26-.51-.35-2.84l0-.44h-9.62v.46c0,5.3.55,7.82,2,9.31,1.33,1.32,3.28,1.59,5.81,1.59H511.1c2.42,0,4.07-.52,5.19-1.64,1.67-1.67,2.52-4.53,2.52-8.5S518.19,73.43,516.73,72Z" transform="translate(-14.97 -26.43)"/><path class="cls-1" d="M141.11,60.13l-3.77,13.18-4-13.18c-.47-1.6-1.14-2.14-2.69-2.14H118.36V89.74H128V72.15l5.09,15.51c.41,1.32.94,2.08,2.42,2.08h3.17c1.46,0,2-.7,2.43-2.08l5.09-15.51V89.74H156V58H143.8C142.25,58,141.57,58.53,141.11,60.13Z" transform="translate(-14.97 -26.43)"/><path class="cls-1" d="M176.36,76.86c0,2.85-.24,3.48-.49,3.73s-.91.35-2.22.35h-3c-1.3,0-2-.11-2.23-.35s-.48-.88-.48-3.73V58H157.59V76.9c0,6.94.91,9.12,2.69,10.9,1.47,1.47,3.28,1.94,7.46,1.94h8.86c4.18,0,6-.47,7.46-1.94,1.78-1.78,2.69-4,2.69-10.9V58H176.36Z" transform="translate(-14.97 -26.43)"/><polygon class="cls-1" points="243.39 31.55 233 31.55 233 63.31 257.75 63.31 257.75 55.3 243.39 55.3 243.39 31.55"/><path class="cls-1" d="M364.08,59.88c-1.35-1.34-3.21-1.89-6.41-1.89H347.41c-3.21,0-5.06.55-6.4,1.89-2.41,2.35-3.49,6.67-3.49,14s1.08,11.63,3.48,14c1.35,1.34,3.21,1.89,6.41,1.89h10.26c3.2,0,5.06-.55,6.4-1.89,2.41-2.35,3.49-6.67,3.49-14S366.48,62.23,364.08,59.88Zm-7.18,14c0,5.66-.38,7.23-.7,7.56-.16.15-.62.21-1.7.21h-3.92c-1.08,0-1.54-.06-1.7-.21h0c-.47-.46-.7-3-.7-7.55,0-5.67.38-7.24.7-7.56.16-.16.62-.22,1.7-.22h3.92c1.08,0,1.54.06,1.7.22C356.52,66.63,356.9,68.2,356.9,73.87Z" transform="translate(-14.97 -26.43)"/><path class="cls-1" d="M387.45,57.86h-7.58c-2.4,0-2.87.78-3.69,3.22l-9.55,28.66h10.46l1.9-6.65h8.77l1.94,6.65h11l-9.54-28.66C390.38,58.74,389.86,57.86,387.45,57.86Zm-1.81,17.7H381.1l2.27-7.79Z" transform="translate(-14.97 -26.43)"/><polygon class="cls-1" points="187.04 55.3 201.37 38.97 201.37 31.55 173.44 31.55 176.17 39.74 187.79 39.74 173.05 55.89 173.05 63.31 201.45 63.31 198.78 55.3 187.04 55.3"/><polygon class="cls-1" points="307.6 55.3 307.6 31.55 297.21 31.55 297.21 63.31 323.88 63.31 321.22 55.3 307.6 55.3"/><polygon class="cls-1" points="269.38 55.25 269.38 50.98 280.18 50.98 280.18 43.45 269.38 43.45 269.38 39.61 283.02 39.61 285.7 31.55 258.99 31.55 258.99 63.31 285.7 63.31 283.02 55.25 269.38 55.25"/><rect class="cls-1" x="282.96" y="43.45" width="11.71" height="7.53"/><path class="cls-1" d="M417.45,58H401.09V89.74h16.36c5.08,0,7.82-.75,9.75-2.69,2.41-2.4,3.27-5.86,3.27-13.18s-.86-10.74-3.27-13.15C425.26,58.78,422.44,58,417.45,58Zm-6,7.88H416c2.15,0,2.71.18,3.1.56s.71,1.85.71,7.44c0,4.74-.21,6.88-.7,7.38s-1,.61-3.11.61h-4.52Z" transform="translate(-14.97 -26.43)"/><path class="cls-1" d="M489.08,81.6c-.11-3.83-1.44-5.35-3.86-6.19,3-1.07,4.17-3.45,4.17-8.2,0-4.49-.76-6.1-2.16-7.5s-3-1.72-6.32-1.72H460.76V89.74h10.39V79.17h4.17c1.86,0,2.14.17,2.46.46s.6.54.69,2.84a58.42,58.42,0,0,0,.53,6.88l.06.39h10.56l-.06-.51C489.38,87.54,489.17,84.52,489.08,81.6ZM478.51,68.71c0,1.79-.22,2.35-.57,2.67-.15.16-.75.22-2.14.22h-4.65V65.91h4.65c1.59,0,2,.08,2.16.24S478.51,66.89,478.51,68.71Z" transform="translate(-14.97 -26.43)"/><polygon class="cls-1" points="441.57 39.61 444.25 31.55 417.54 31.55 417.54 63.31 444.25 63.31 441.57 55.25 427.93 55.25 427.93 50.98 438.72 50.98 438.72 43.45 427.93 43.45 427.93 39.61 441.57 39.61"/><polygon class="cls-1" points="216.63 55.3 230.96 38.97 230.96 31.55 203.04 31.55 205.77 39.74 217.39 39.74 202.64 55.89 202.64 63.31 231.04 63.31 228.38 55.3 216.63 55.3"/></svg>