<?xml version="1.0" encoding="utf-8"?>
<!-- Generator: Adobe Illustrator 22.0.0, SVG Export Plug-In . SVG Version: 6.00 Build 0)  -->
<svg version="1.1" id="Artwork" xmlns="http://www.w3.org/2000/svg" xmlns:xlink="http://www.w3.org/1999/xlink" x="0px" y="0px"
	 viewBox="0 0 1020.8 258" enable-background="new 0 0 1020.8 258" xml:space="preserve">
<path fill="none" stroke="#626769" stroke-width="0.5668" stroke-miterlimit="10" d="M481.6,2546.4"/>
<line fill="none" stroke="#626769" stroke-width="0.5668" stroke-miterlimit="10" x1="458.4" y1="2503.2" x2="458.4" y2="2503.2"/>
<g>
	<path fill="#0174C3" d="M162.7,129.2c0-7,1.9-12.6,5.6-16.8c3.7-4.2,8.5-6.3,14.4-6.3c1.9,0,3.7,0.2,5.3,0.7c1.6,0.5,2.9,1,3.9,1.7
		c1,0.7,1.8,1.4,2.5,2.1c0.7,0.7,1.2,1.3,1.5,1.7l0.3,0.7h0.2c-0.1-0.9-0.2-1.9-0.2-3V89.6h8.5v61.7h-8v-4.2l0.1-3h-0.2
		c-0.1,0.2-0.3,0.5-0.5,0.9c-0.2,0.3-0.7,1-1.5,2c-0.8,1-1.7,1.8-2.7,2.5c-1,0.7-2.4,1.4-4.2,2c-1.7,0.6-3.6,0.9-5.7,0.9
		c-5.9,0-10.7-2.1-14.2-6.4C164.5,141.7,162.7,136.1,162.7,129.2z M171.4,129.2c0,4.8,1.2,8.6,3.5,11.5c2.3,2.9,5.3,4.3,9.1,4.3
		c3.6,0,6.6-1.3,9.1-4c2.4-2.7,3.7-6.6,3.7-11.9c0-4.3-1.1-7.9-3.3-11.1c-2.2-3.1-5.3-4.7-9.2-4.7c-3.6,0-6.6,1.4-9.1,4.2
		C172.6,120.4,171.4,124.3,171.4,129.2z"/>
	<path fill="#0174C3" d="M212,98.3v-8.7h8.6v8.7H212z M212.1,151.3v-44.2h8.5v44.2H212.1z"/>
	<path fill="#0174C3" d="M233.5,159.4c3.7,2,7.7,3,12.2,3c4.2,0,7.6-1,10.1-3c2.6-2,3.8-5.1,3.8-9.4v-3.2l0.1-2.8h-0.2
		c-2.7,4.6-7.1,6.9-13.1,6.9c-6,0-10.8-2.1-14.4-6.4c-3.6-4.3-5.4-9.7-5.4-16.2c0-6.5,1.7-11.8,5.2-16c3.4-4.1,8.2-6.2,14.2-6.2
		c2,0,3.8,0.2,5.5,0.7c1.7,0.4,3,1,4,1.7c1,0.7,1.8,1.3,2.5,2c0.7,0.6,1.2,1.2,1.4,1.7l0.4,0.6h0.2c-0.1-0.4-0.1-0.9-0.1-1.4v-4.1
		h8.1v42.4c0,3.5-0.6,6.6-1.9,9.3c-1.3,2.7-3,4.8-5.1,6.3c-2.2,1.5-4.5,2.7-7.1,3.5c-2.6,0.8-5.3,1.1-8.2,1.1
		c-5.3,0-10.3-1.2-15.1-3.7L233.5,159.4z M248.1,143.5c3.4,0,6.3-1.2,8.4-3.6c2.2-2.4,3.3-6.3,3.3-11.6c0-9.9-4.2-14.9-12.5-14.9
		c-3.8,0-6.7,1.3-8.9,3.9c-2.1,2.6-3.2,6.2-3.2,10.7c0,4.7,1.2,8.4,3.5,11.2C241.1,142,244.2,143.5,248.1,143.5z"/>
	<path fill="#0174C3" d="M275.2,98.3v-8.7h8.6v8.7H275.2z M275.2,151.3v-44.2h8.5v44.2H275.2z"/>
	<path fill="#0174C3" d="M289.9,129.2c0-6.6,2.2-12.1,6.7-16.5c4.5-4.4,10.1-6.6,17-6.6c3.3,0,6.3,0.5,9,1.6
		c2.8,1.1,4.7,2.2,5.9,3.3l1.7,1.6l-4,5.9c-0.3-0.3-0.9-0.8-1.5-1.4c-0.7-0.6-2.1-1.3-4.2-2.3c-2.1-0.9-4.3-1.4-6.5-1.4
		c-4.4,0-8.1,1.5-11,4.5c-2.9,3-4.4,6.7-4.4,11.3c0,4.5,1.5,8.3,4.4,11.4c2.9,3,6.7,4.5,11.2,4.5c2.4,0,4.8-0.5,7.1-1.5
		c2.3-1,3.9-2,5-3l1.6-1.5l3.4,6.2c-0.2,0.2-0.4,0.4-0.7,0.7c-0.3,0.3-1,0.9-2.1,1.7c-1.1,0.8-2.3,1.5-3.6,2.1
		c-1.3,0.6-2.9,1.2-4.9,1.7c-2,0.5-4.1,0.8-6.3,0.8c-6.9,0-12.6-2.2-17.1-6.6C292.1,141.4,289.9,135.9,289.9,129.2z"/>
	<path fill="#0174C3" d="M332.3,129.2c0-6.9,2.1-12.5,6.3-16.8c4.2-4.3,9.5-6.4,15.9-6.4c6,0,10.7,2,14.1,5.9
		c3.4,3.9,5.1,8.9,5.1,14.9l-0.3,3.7h-32.3c0.2,4.7,1.8,8.3,4.7,10.8c2.9,2.5,6.4,3.8,10.5,3.8c2.3,0,4.5-0.4,6.7-1.3
		c2.2-0.9,3.8-1.7,4.9-2.5l1.6-1.3l3.5,6.2c-0.5,0.5-1.2,1-2.1,1.7c-0.9,0.7-2.9,1.6-5.9,2.8c-3,1.2-6,1.7-9.2,1.7
		c-6.9,0-12.5-2.2-16.9-6.6C334.5,141.4,332.3,135.8,332.3,129.2z M341.3,124H365c-0.1-3.7-1.2-6.5-3.2-8.4c-2-1.9-4.5-2.9-7.5-2.9
		c-3.3,0-6.2,1-8.5,3C343.4,117.7,341.9,120.5,341.3,124z"/>
	<path fill="#0174C3" d="M379.7,151.3v-44.2h8.2v7.7l-0.2,3.3h0.2c1-3.4,2.8-6.1,5.3-8.3c2.5-2.2,5.4-3.2,8.7-3.2l2.2,0.2v8.4
		c-0.8-0.2-1.6-0.3-2.4-0.3c-2.7,0-5.2,0.9-7.5,2.8c-2.3,1.9-3.9,4.4-4.9,7.6c-0.7,2.3-1,4.9-1,8v18.1H379.7z"/>
	<path fill="#0174C3" d="M415,135.1v-20.6h-5.8v-6.8h6V94.9h8.2v12.8h10.7v6.8h-10.7v19.7c0,1.7,0.2,3.2,0.7,4.4
		c0.5,1.3,1,2.2,1.7,2.9c0.7,0.7,1.5,1.3,2.4,1.7c0.9,0.4,1.7,0.7,2.4,0.8c0.7,0.1,1.5,0.2,2.2,0.2l2-0.2v7.5
		c-0.8,0.1-1.8,0.2-3,0.2c-1.4,0-2.7-0.1-4-0.3c-1.3-0.2-2.7-0.6-4.4-1.3c-1.6-0.7-3-1.6-4.2-2.8c-1.2-1.1-2.2-2.8-3.1-4.9
		C415.4,140.4,415,137.9,415,135.1z"/>
	<g>
		<path fill="#0174C3" d="M436.7,92.1h3c1,0,1.4,0.1,1.6,0.2c0.8,0.3,1.1,1.2,1.1,1.9c0,0.8-0.4,1.6-1.1,1.9
			c-0.3,0.1-0.5,0.2-0.8,0.2v0c0.6,0.4,0.9,0.6,1.5,1.8l0.9,1.5h-1.7l-1-1.6c-0.8-1.4-0.9-1.5-1.9-1.5h-0.3v3.2h-1.4V92.1z
			 M438.1,95.3h1c0.4,0,1,0,1.3-0.1c0.5-0.2,0.5-0.7,0.5-0.9c0-0.3-0.1-0.6-0.4-0.8c-0.3-0.2-0.4-0.2-1.4-0.2h-1.1V95.3z"/>
		<path fill="#0174C3" d="M439.6,89.5c-3.6,0-6.4,2.9-6.4,6.4c0,3.5,2.9,6.4,6.4,6.4c3.5,0,6.4-2.9,6.4-6.4
			C446,92.3,443.1,89.5,439.6,89.5 M439.6,101c-2.9,0-5.2-2.3-5.2-5.2c0-2.8,2.3-5.2,5.2-5.2c2.8,0,5.1,2.3,5.1,5.2
			C444.7,98.7,442.4,101,439.6,101"/>
	</g>
	<g>
		<path fill="#0174C3" d="M156.2,135.6c-1.3-14.5-11.3-24.3-18.9-34.8c3.2-4.8,10.5-3.3,15.8-2.1c-6.7-4.7-14.8-7.5-23.4-8.3
			c-16.4-0.2-29.3,9.2-41.4,19.8c-7.1-2.6-2.2-10.4-2.1-15.8c-6.2,8.6-8.2,18-8.1,27.9c0.3,8.9,4,17.3,9,25c3.5,4,7,8.1,10.6,12.1
			c-3.4,5.9-10.5,3.3-15.8,2.2c8.5,6.2,18,8.2,27.8,8.1c8.8-0.3,17.3-4,24.9-9c4-3.5,8.1-7.1,12.1-10.6c3.5,4.1,4.3,10.8,2.1,15.8
			C154.9,157.3,157.1,146.8,156.2,135.6z M144.7,136c-2.9,3.8-6.8,8.4-6.8,8.4c-3.7,4.3-7.1,6.4-8.5,7.5c-5.1,3.9-11.3,6.1-17.5,6.3
			c0,0-0.7,0-1.5-0.1l-0.2-0.2c-3-3-7-7.1-7-7.1c-2.3-2.6-4.2-4-7.1-8.2c-3.7-5.2-6.1-11.3-6.3-17.5c0,0,0-0.9,0-2v-0.2l7.1-6.3
			c8.4-7.3,17.3-13.8,28.5-13.9l0.4,0l5.4,7.3c5.4,7.3,12.4,14.2,13.3,24.4C144.6,134.2,144.8,135.8,144.7,136z"/>
	</g>
</g>
<line fill="none" stroke="#231F20" stroke-linecap="round" stroke-linejoin="round" stroke-miterlimit="10" x1="524.4" y1="77.9" x2="524.4" y2="180.3"/>
<g>
	<g>
		<g>
			<path fill="#231F20" d="M714.8,138.2c-7.5,0-12.2-2.8-14.4-4.5l-0.2-0.2l0.2-0.2l3.1-4.9l0.2-0.3l0.3,0.2
				c1.8,1.3,5.6,3.6,10.8,3.6c4.4,0,7-1.9,7-5.3c0-3.7-3-4.8-8.4-6.7l-0.6-0.2c-5.4-1.9-10.5-4.7-10.5-12.1c0-6.7,5.1-11,13-11
				c4.7,0,8.3,0.9,11.5,2.7l0.2,0.1l-0.1,0.3l-2.5,5.2l-0.1,0.3l-0.3-0.1c-2.7-1.4-5.5-2.1-8.6-2.1c-2.8,0-6.2,0.8-6.2,4.4
				c0,3.6,2.6,4.5,7.9,6.2c5.7,1.9,11.9,4.6,11.9,12.8C728.9,133.8,723.6,138.2,714.8,138.2L714.8,138.2z"/>
		</g>
		<g>
			<path fill="#231F20" d="M734.5,148.2c-1.4,0-2.7-0.2-4.2-0.5l-0.3-0.1l0-0.3l0.7-4.8l0-0.3l0.3,0l0.5,0.1
				c0.7,0.1,1.3,0.2,2.1,0.2c2.8,0,4.5-1,5.7-3.4l-10.4-30.5l-0.1-0.4h0.4h7h0.2l0.1,0.2l6,21.6l5.4-21.6l0.1-0.2h0.2h6.6h0.4
				l-0.1,0.4l-9.2,30.2C744.1,145.2,740.4,148.2,734.5,148.2L734.5,148.2z"/>
		</g>
		<g>
			<path fill="#231F20" d="M797.6,137.7h-0.3h-6.8h-0.3v-0.3V118c0-2.5-0.5-4.1-3-4.1c-1.7,0-3.7,1-5.7,2.9v20.6v0.3h-0.3h-6.8h-0.3
				v-0.3V118c0-2.5-0.5-4.1-3-4.1c-1.8,0-3.9,1.1-5.7,3v20.5v0.3h-0.3h-6.8H758v-0.3v-28.9v-0.3h0.3h4.1h0.2l0.1,0.2l1.3,4
				c3.1-3.3,6.2-4.9,9.5-4.9c4.2,0,5.9,2.3,6.9,4.5c2.1-2.1,5.3-4.5,9.2-4.5c6.6,0,8,5.7,8,10.5v19.4V137.7L797.6,137.7z"/>
		</g>
		<g>
			<path fill="#231F20" d="M810.4,138.2c-5.4,0-9.2-3.5-9.2-8.5c0-3.2,1.1-5.5,3.5-7.1c2.5-1.7,6.5-2.9,12.8-3.8V118
				c0-3.2-1.2-4.4-4.3-4.4c-2.7,0-5.4,1.1-7.9,2.3l-0.3,0.1l-0.1-0.3l-2.4-4.5l-0.1-0.3l0.2-0.2c3.7-2.3,7.2-3.3,11.2-3.3
				c7.3,0,11.1,3.8,11.1,10.9v18.9v0.3h-0.3h-4.1h-0.2l-0.1-0.2l-1.2-2.9C817.1,136.4,814.2,138.2,810.4,138.2L810.4,138.2z
				 M817.5,123.7c-4.8,0.9-7.2,1.8-8.2,3c-0.6,0.7-0.8,1.3-0.8,2.5c0,2.2,1.2,3.4,3.4,3.4c1.9,0,3.9-0.8,5.6-2.1V123.7L817.5,123.7z
				"/>
		</g>
		<g>
			<path fill="#231F20" d="M855.4,137.7h-0.3h-6.8H848v-0.3V118c0-2.9-1-4.1-3.4-4.1c-2,0-4.3,1.2-6.1,3.1v20.4v0.3h-0.3h-6.8h-0.3
				v-0.3v-28.9v-0.3h0.3h4.1h0.2l0.1,0.2l1.3,4.1c3.1-3.3,6.3-4.9,9.8-4.9c5.6,0,8.4,3.5,8.4,10.5v19.4V137.7L855.4,137.7z"/>
		</g>
		<g>
			<path fill="#231F20" d="M870.8,138.2c-5.8,0-8.6-2.9-8.6-8.8v-15.9h-4h-0.3v-0.3v-4.7v-0.3h0.3h4.1l1.3-8l0-0.3h0.3h5.3h0.3v0.3
				v8h5.9h0.3v0.3v4.7v0.3h-0.3h-5.9V129c0,2.5,0.4,3.4,2.9,3.4c0.7,0,1.9-0.2,3-0.6l0.3-0.1l0.1,0.3l0.8,4.7l0,0.3l-0.2,0.1
				C875.8,137.5,873.7,138.2,870.8,138.2L870.8,138.2z"/>
		</g>
		<g>
			<path fill="#231F20" d="M891.3,138.2c-8.2,0-13.4-5.8-13.4-15.1c0-9.4,5-15.5,12.9-15.5c7.9,0,12.5,5.7,12.5,15.6v1.8v0.3h-0.3
				h-17.4c0.4,4.8,2.3,6.9,6.2,6.9c3.2,0,5.3-1.2,7.5-2.6l0.3-0.2l0.2,0.3l2.7,4.2l0.2,0.2l-0.2,0.2
				C899.6,136.5,896.9,138.2,891.3,138.2L891.3,138.2z M885.6,120.4h10c-0.2-4.9-1.8-7.2-4.9-7.2C887.7,113.1,886,115.5,885.6,120.4
				L885.6,120.4z"/>
		</g>
		<g>
			<path fill="#231F20" d="M919.7,138.2c-9.8,0-13.3-7.8-13.3-15.1c0-7.2,3.5-15.5,13.3-15.5c4.1,0,6.9,1,9.5,3.3l0.2,0.2l-0.2,0.2
				l-3.1,4.5l-0.2,0.3l-0.3-0.2c-1.6-1.2-3.3-2-5.9-2c-3.8,0-5.7,3.1-5.7,9.3c0,6.1,1.9,9,5.9,9c2.6,0,4.3-1,6.1-2.5l0.2-0.2
				l0.2,0.3l3.2,4.1l0.2,0.2l-0.2,0.2C926.9,137,923.8,138.2,919.7,138.2L919.7,138.2z"/>
		</g>
	</g>
	<g>
		<g>
			<path fill="#FFB71B" d="M648.4,180.3c-24.4,0-44.2-19.9-44.2-44.3c0-24.4,19.9-44.3,44.2-44.3c24.4,0,44.2,19.9,44.2,44.3
				C692.6,160.4,672.8,180.3,648.4,180.3L648.4,180.3z M648.4,105.7c-8.1,0-15.7,3.2-21.4,8.9c-5.7,5.7-8.9,13.3-8.9,21.4
				c0,8.1,3.1,15.7,8.9,21.4c5.7,5.7,13.3,8.9,21.4,8.9c8.1,0,15.7-3.2,21.4-8.9c5.7-5.7,8.9-13.3,8.9-21.4c0-8.1-3.1-15.7-8.9-21.4
				C664.1,108.8,656.5,105.7,648.4,105.7L648.4,105.7z"/>
		</g>
	</g>
	<g>
		<path fill="#231F20" d="M934.7,112.4h-1.4v-0.9h3.9v0.9h-1.4v4.5h-1.1V112.4z M938.2,111.5h1.7l1.1,3.9l1-3.9h1.7v5.3h-1.1v-4.1
			l-1.1,4.1h-1l-1.1-4.1v4.1h-1V111.5z"/>
	</g>
	<g>
		<rect x="696.6" y="84.8" fill="#FFB71B" width="3.5" height="3.5"/>
		<rect x="696.6" y="77.9" fill="#FFB71B" width="3.5" height="3.5"/>
		<rect x="686.9" y="88.3" fill="#FFB71B" width="3.2" height="3.4"/>
		<rect x="680.5" y="94.9" fill="#231F20" width="3.2" height="3.2"/>
		<rect x="690.1" y="91.6" fill="#231F20" width="3.6" height="3.3"/>
		<rect x="677.3" y="91.8" fill="#231F20" width="3.2" height="3.1"/>
		<rect x="686.9" y="94.9" fill="#231F20" width="3.2" height="3.2"/>
		<rect x="693.2" y="81.4" fill="#231F20" width="3.4" height="3.4"/>
		<rect x="686.9" y="84.8" fill="#231F20" width="6.3" height="3.4"/>
		<rect x="683.7" y="88.3" fill="#231F20" width="3.1" height="6.6"/>
		<path fill="#231F20" d="M683.7,98.1v3.3h-3.2v-3.3h-5.4v2.3h-2.9v2.9h3.2v3.2h-3.2v-3.2h-3.4v5.1h-3.2v3.2h-2.2v3.2H661
			c-2.7,4-9.3,16.3-11.3,21.3c-7.3-10.1-12.9-14.1-17.3-15.6c-2.4-0.7-5.3,1.9-1.3,6c9.1,10.1,12,18.4,14.8,25
			c1.5,3.5,8.1,4,9.4,0.5c2.8-7.5,6.9-16,11.7-23v-3.6h2.6v-3.3h2.7v-3.8h3.2v-3.6h-3.3v-3.3h3.3v3.3h3.2l0-3.3h2.6v-3.9h2.9V105
			h2.8v-6.9H683.7z"/>
	</g>
	<g>
		<path fill="#999999" d="M702.6,151.7h2.2l3.4,17.4l4-17.4h2.6l4.1,17.4l3.5-17.4h2.1l-4.4,20.2h-2.4l-4.3-18l-4.2,18H707
			L702.6,151.7z"/>
		<path fill="#999999" d="M730.4,170.4c1.7,0,2.7-0.6,3.9-1.4l0.9,1.2c-1.4,1.2-2.6,1.9-5,1.9c-3.6,0-5.8-2.9-5.8-7.4
			c0-4.4,2.2-7.4,5.6-7.4c3.5,0,5.5,2.6,5.5,7.5v0.5h-9C726.7,168.6,727.8,170.4,730.4,170.4z M733.4,163.8
			c-0.1-3.3-1.2-4.9-3.4-4.9c-1.9,0-3.3,1.5-3.5,4.9H733.4z"/>
		<path fill="#999999" d="M739.1,170.1l-0.5,1.7h-1.2v-20.2h2.1v7.5c0.9-0.9,2.3-1.9,4-1.9c4,0,5.5,4,5.5,7.2c0,4.5-2.4,7.6-5.9,7.6
			C741.3,172.1,740.1,171.3,739.1,170.1z M746.8,164.4c0-2.3-0.7-5.3-3.6-5.3c-1.3,0-2.6,0.6-3.7,1.7v8c1,1.1,1.9,1.6,3.3,1.6
			C745.3,170.4,746.8,168.2,746.8,164.4z"/>
		<path fill="#999999" d="M750,170.5l0.9-1.3c0.9,0.7,2.2,1.3,4,1.3c1.8,0,3-0.8,3-2.3c0-1.6-1.2-2.1-3.2-2.9c-2.2-0.9-4-1.8-4-4.3
			c0-2.1,1.5-3.7,4.5-3.7c2,0,3.1,0.5,4.2,1l-0.7,1.5c-0.7-0.4-1.7-0.9-3.4-0.9c-2,0-2.7,0.8-2.7,2.1c0,1.3,0.8,1.9,3,2.6
			c2.4,0.9,4.4,1.9,4.4,4.5c0,2.4-1.8,4-5,4C752.6,172.1,750.9,171.2,750,170.5z"/>
		<path fill="#999999" d="M761.6,153.4c0-0.8,0.6-1.4,1.4-1.4c0.8,0,1.4,0.6,1.4,1.4c0,0.8-0.6,1.4-1.4,1.4
			C762.2,154.8,761.6,154.2,761.6,153.4z M761.9,157.5h2.1v14.3h-2.1V157.5z"/>
		<path fill="#999999" d="M766,159v-1.5h2.2l0.6-4.1h1.4v4.1h3.2v1.5h-3.2v9.3c0,1.4,0.2,2.2,1.6,2.2c0.6,0,1-0.1,1.7-0.3l0.3,1.4
			c-0.5,0.3-1.3,0.5-2.1,0.5c-2.5,0-3.6-1.3-3.6-3.6V159H766z"/>
		<path fill="#999999" d="M780.8,170.4c1.7,0,2.7-0.6,3.9-1.4l0.9,1.2c-1.4,1.2-2.6,1.9-5,1.9c-3.6,0-5.8-2.9-5.8-7.4
			c0-4.4,2.2-7.4,5.6-7.4c3.5,0,5.5,2.6,5.5,7.5v0.5h-9C777.1,168.6,778.2,170.4,780.8,170.4z M783.8,163.8
			c-0.1-3.3-1.2-4.9-3.4-4.9c-1.9,0-3.3,1.5-3.5,4.9H783.8z"/>
		<path fill="#999999" d="M792.6,169.7l1.1-1.4c1.2,0.9,3,2,5.7,2c2.8,0,4.4-1.4,4.4-3.7c0-2.6-1.9-3.5-4.5-4.4
			c-3-1-5.6-2.3-5.6-5.9c0-3.2,2.5-4.9,5.8-4.9c2.4,0,3.6,0.4,5.2,1.3l-0.9,1.6c-1.2-0.7-2.5-1.1-4.4-1.1c-2.2,0-3.8,0.9-3.8,3.1
			s1.4,3,4.4,4.1c2.8,1,5.8,2.2,5.8,6.1c0,3.5-2.5,5.5-6.5,5.5C796.1,172.1,793.9,170.9,792.6,169.7z"/>
		<path fill="#999999" d="M813.2,170.4c1.7,0,2.7-0.6,3.9-1.4l0.9,1.2c-1.4,1.2-2.6,1.9-5,1.9c-3.6,0-5.8-2.9-5.8-7.4
			c0-4.4,2.2-7.4,5.6-7.4c3.5,0,5.5,2.6,5.5,7.5v0.5h-9C809.5,168.6,810.6,170.4,813.2,170.4z M816.2,163.8
			c-0.1-3.3-1.2-4.9-3.4-4.9c-1.9,0-3.3,1.5-3.5,4.9H816.2z"/>
		<path fill="#999999" d="M820.2,164.8c0-3.5,1.4-7.5,5.8-7.5c1.8,0,3.2,0.5,4.4,1.5l-0.9,1.4c-0.9-0.7-2.1-1.2-3.5-1.2
			c-3.3,0-3.6,3.5-3.6,5.9c0,2.3,0.5,5.6,3.8,5.6c1.5,0,2.6-0.6,3.6-1.4l1,1.2c-1,1-2.5,1.9-4.6,1.9
			C821.8,172.1,820.2,168.2,820.2,164.8z"/>
		<path fill="#999999" d="M832.7,167.4v-9.9h2.1v9.9c0,1.5,0.4,2.9,2.5,2.9c1.5,0,2.9-0.9,4.2-2.1v-10.7h2.1v14.3h-1.2l-0.6-2.2
			c-1.3,1.3-3,2.5-5.1,2.5C833.6,172.1,832.7,169.7,832.7,167.4z"/>
		<path fill="#999999" d="M847.1,157.5h1.1l0.7,3.1c1-2,2.7-3.2,4.8-3.2h0.3v2c0,0-0.2,0-0.3,0c-2.3,0-4.5,1.3-4.5,4.6v7.9h-2.1
			V157.5z"/>
		<path fill="#999999" d="M855.8,153.4c0-0.8,0.6-1.4,1.4-1.4c0.8,0,1.4,0.6,1.4,1.4c0,0.8-0.6,1.4-1.4,1.4
			C856.4,154.8,855.8,154.2,855.8,153.4z M856.1,157.5h2.1v14.3h-2.1V157.5z"/>
		<path fill="#999999" d="M860.8,159v-1.5h2.2l0.6-4.1h1.4v4.1h3.2v1.5H865v9.3c0,1.4,0.2,2.2,1.6,2.2c0.6,0,1-0.1,1.7-0.3l0.3,1.4
			c-0.5,0.3-1.3,0.5-2.1,0.5c-2.5,0-3.6-1.3-3.6-3.6V159H860.8z"/>
		<path fill="#999999" d="M869.7,157.5h2.1l3.8,12.4l3.6-12.4h2.1l-5,15.7c-0.8,2.6-2.2,3.9-4.7,3.9c-0.5,0-1.1-0.1-1.5-0.3l0.3-1.5
			c0.3,0.1,0.7,0.1,1.1,0.1c1.7,0,2.7-1,3.2-2.7L869.7,157.5z"/>
	</g>
</g>
</svg>
