<?xml version="1.0" encoding="utf-8"?>
<!-- Generator: Adobe Illustrator 16.0.0, SVG Export Plug-In . SVG Version: 6.00 Build 0)  -->
<!DOCTYPE svg PUBLIC "-//W3C//DTD SVG 1.1//EN" "http://www.w3.org/Graphics/SVG/1.1/DTD/svg11.dtd">
<svg version="1.1" id="Layer_1" xmlns="http://www.w3.org/2000/svg" xmlns:xlink="http://www.w3.org/1999/xlink" x="0px" y="0px"
	 width="253px" height="77px" viewBox="0 0 253 77" enable-background="new 0 0 253 77" xml:space="preserve">
<g enable-background="new    ">
	<path fill="#808080" d="M14.878,26.414v22.061H8.782V34.02c-0.986,0.749-1.94,1.356-2.863,1.819
		c-0.922,0.464-2.079,0.908-3.47,1.332v-4.942c2.052-0.661,3.645-1.455,4.779-2.382c1.134-0.927,2.022-2.071,2.663-3.433H14.878z"/>
	<path fill="#808080" d="M20.855,38.236h8.759v4.66h-8.759V38.236z"/>
	<path fill="#808080" d="M35.147,36.815c-0.947-0.503-1.637-1.065-2.071-1.687c-0.592-0.849-0.888-1.824-0.888-2.93
		c0-1.814,0.853-3.299,2.56-4.453c1.332-0.888,3.092-1.332,5.282-1.332c2.9,0,5.042,0.553,6.429,1.657
		c1.386,1.105,2.079,2.496,2.079,4.172c0,0.977-0.276,1.889-0.829,2.738c-0.414,0.631-1.065,1.242-1.953,1.834
		c1.174,0.562,2.049,1.308,2.626,2.234s0.866,1.953,0.866,3.077c0,1.086-0.25,2.099-0.748,3.041
		c-0.498,0.941-1.109,1.669-1.834,2.183c-0.725,0.513-1.627,0.89-2.708,1.132c-1.08,0.241-2.232,0.362-3.455,0.362
		c-2.298,0-4.054-0.271-5.267-0.814c-1.213-0.542-2.136-1.341-2.767-2.396c-0.631-1.056-0.947-2.234-0.947-3.536
		c0-1.272,0.296-2.35,0.888-3.232S33.915,37.299,35.147,36.815z M37.53,41.891c0,0.957,0.291,1.738,0.873,2.345
		c0.582,0.606,1.248,0.91,1.997,0.91c0.72,0,1.366-0.308,1.938-0.925c0.572-0.616,0.858-1.398,0.858-2.345
		c0-0.957-0.289-1.741-0.865-2.353c-0.577-0.611-1.246-0.918-2.005-0.918c-0.75,0-1.403,0.296-1.96,0.888
		C37.808,40.086,37.53,40.885,37.53,41.891z M37.855,32.555c0,0.75,0.234,1.354,0.703,1.812c0.468,0.458,1.092,0.688,1.872,0.688
		c0.69,0,1.257-0.227,1.702-0.681c0.444-0.453,0.666-1.04,0.666-1.761c0-0.749-0.232-1.358-0.695-1.827
		c-0.464-0.469-1.056-0.703-1.775-0.703c-0.73,0-1.324,0.229-1.783,0.688C38.084,31.23,37.855,31.825,37.855,32.555z"/>
	<path fill="#808080" d="M54.175,26.784h14.308v4.809h-9.691l-0.518,3.255c0.67-0.315,1.333-0.552,1.99-0.71
		c0.656-0.158,1.304-0.236,1.946-0.236c2.17,0,3.931,0.655,5.282,1.968c1.352,1.312,2.027,2.964,2.027,4.956
		c0,1.4-0.348,2.747-1.043,4.039c-0.695,1.293-1.682,2.278-2.959,2.959s-2.912,1.021-4.905,1.021c-1.43,0-2.656-0.136-3.677-0.407
		c-1.021-0.271-1.889-0.676-2.604-1.213c-0.715-0.538-1.294-1.146-1.738-1.827s-0.814-1.529-1.11-2.545l6.096-0.666
		c0.148,0.977,0.493,1.719,1.036,2.227c0.542,0.508,1.188,0.762,1.938,0.762c0.838,0,1.531-0.317,2.079-0.954
		c0.548-0.636,0.821-1.585,0.821-2.848c0-1.292-0.276-2.239-0.829-2.841s-1.287-0.903-2.205-0.903c-0.582,0-1.144,0.144-1.687,0.43
		c-0.405,0.207-0.849,0.582-1.332,1.124l-5.134-0.739L54.175,26.784z"/>
	<path fill="#808080" d="M74.386,26.784h14.308v4.809h-9.691l-0.518,3.255c0.67-0.315,1.333-0.552,1.99-0.71
		c0.656-0.158,1.304-0.236,1.946-0.236c2.17,0,3.931,0.655,5.282,1.968c1.352,1.312,2.027,2.964,2.027,4.956
		c0,1.4-0.348,2.747-1.043,4.039c-0.695,1.293-1.682,2.278-2.959,2.959s-2.912,1.021-4.905,1.021c-1.43,0-2.656-0.136-3.677-0.407
		c-1.021-0.271-1.889-0.676-2.604-1.213c-0.715-0.538-1.294-1.146-1.738-1.827s-0.814-1.529-1.11-2.545l6.096-0.666
		c0.148,0.977,0.493,1.719,1.036,2.227c0.542,0.508,1.188,0.762,1.938,0.762c0.838,0,1.531-0.317,2.079-0.954
		c0.548-0.636,0.821-1.585,0.821-2.848c0-1.292-0.276-2.239-0.829-2.841s-1.287-0.903-2.205-0.903c-0.582,0-1.144,0.144-1.687,0.43
		c-0.405,0.207-0.849,0.582-1.332,1.124l-5.134-0.739L74.386,26.784z"/>
	<path fill="#808080" d="M91.579,38.236h8.759v4.66h-8.759V38.236z"/>
	<path fill="#808080" d="M119.883,48.475h-18.081c0.208-1.785,0.836-3.465,1.887-5.038c1.05-1.573,3.021-3.43,5.911-5.57
		c1.766-1.312,2.895-2.309,3.389-2.989c0.492-0.68,0.74-1.326,0.74-1.938c0-0.661-0.244-1.226-0.732-1.694
		c-0.488-0.468-1.104-0.703-1.844-0.703c-0.768,0-1.397,0.242-1.886,0.725c-0.488,0.483-0.816,1.336-0.984,2.56l-6.037-0.488
		c0.237-1.697,0.671-3.021,1.302-3.973c0.631-0.952,1.521-1.682,2.67-2.19c1.149-0.508,2.74-0.762,4.771-0.762
		c2.121,0,3.771,0.242,4.949,0.725c1.18,0.483,2.105,1.226,2.781,2.227s1.014,2.123,1.014,3.366c0,1.321-0.387,2.584-1.16,3.787
		c-0.775,1.204-2.184,2.525-4.225,3.966c-1.213,0.838-2.025,1.425-2.434,1.761c-0.41,0.335-0.891,0.774-1.443,1.316h9.41V48.475z"/>
	<path fill="#808080" d="M128.301,33.058l-5.696-1.021c0.474-1.815,1.384-3.206,2.729-4.172c1.347-0.967,3.253-1.45,5.719-1.45
		c2.831,0,4.878,0.528,6.141,1.583s1.894,2.382,1.894,3.98c0,0.938-0.257,1.785-0.77,2.545s-1.287,1.426-2.322,1.997
		c0.838,0.207,1.479,0.449,1.923,0.726c0.72,0.443,1.28,1.028,1.68,1.753s0.599,1.591,0.599,2.597c0,1.263-0.33,2.474-0.991,3.632
		c-0.661,1.159-1.612,2.052-2.855,2.679c-1.242,0.626-2.875,0.939-4.897,0.939c-1.973,0-3.528-0.232-4.668-0.695
		c-1.139-0.464-2.076-1.142-2.811-2.035c-0.735-0.893-1.3-2.014-1.694-3.365l6.021-0.799c0.237,1.213,0.604,2.054,1.103,2.522
		s1.132,0.702,1.901,0.702c0.809,0,1.481-0.296,2.02-0.888c0.537-0.592,0.807-1.381,0.807-2.367c0-1.006-0.26-1.785-0.777-2.338
		c-0.518-0.552-1.221-0.828-2.108-0.828c-0.474,0-1.124,0.118-1.953,0.355l0.311-4.306c0.336,0.049,0.597,0.073,0.784,0.073
		c0.789,0,1.448-0.251,1.976-0.754s0.792-1.1,0.792-1.791c0-0.661-0.198-1.188-0.592-1.583c-0.395-0.395-0.938-0.592-1.628-0.592
		c-0.71,0-1.287,0.214-1.731,0.644C128.76,31.23,128.459,31.982,128.301,33.058z"/>
	<path fill="#808080" d="M160.111,31.667l-5.992,0.74c-0.157-0.838-0.421-1.43-0.791-1.776c-0.37-0.345-0.826-0.518-1.369-0.518
		c-0.977,0-1.736,0.493-2.278,1.479c-0.395,0.71-0.686,2.229-0.873,4.557c0.72-0.729,1.46-1.27,2.22-1.62
		c0.759-0.35,1.637-0.524,2.634-0.524c1.933,0,3.567,0.69,4.904,2.071s2.005,3.132,2.005,5.252c0,1.431-0.338,2.737-1.014,3.921
		s-1.612,2.079-2.811,2.686c-1.199,0.606-2.7,0.91-4.506,0.91c-2.17,0-3.911-0.37-5.223-1.11c-1.312-0.739-2.36-1.921-3.145-3.543
		c-0.784-1.623-1.176-3.771-1.176-6.443c0-3.916,0.823-6.784,2.471-8.604s3.931-2.73,6.851-2.73c1.726,0,3.09,0.2,4.091,0.6
		s1.832,0.984,2.493,1.753C159.264,29.536,159.767,30.503,160.111,31.667z M149.015,41.328c0,1.174,0.296,2.094,0.888,2.76
		s1.317,0.998,2.176,0.998c0.789,0,1.449-0.301,1.982-0.902c0.532-0.602,0.799-1.499,0.799-2.692c0-1.223-0.276-2.155-0.829-2.797
		c-0.552-0.641-1.237-0.961-2.057-0.961c-0.838,0-1.541,0.311-2.107,0.932C149.299,39.286,149.015,40.174,149.015,41.328z"/>
	<path fill="#808080" d="M162.302,38.236h8.759v4.66h-8.759V38.236z"/>
	<path fill="#808080" d="M175.411,26.784h14.307v4.809h-9.69l-0.519,3.255c0.671-0.315,1.334-0.552,1.99-0.71
		s1.305-0.236,1.945-0.236c2.17,0,3.931,0.655,5.282,1.968c1.352,1.312,2.027,2.964,2.027,4.956c0,1.4-0.348,2.747-1.043,4.039
		c-0.695,1.293-1.682,2.278-2.959,2.959c-1.278,0.681-2.913,1.021-4.905,1.021c-1.431,0-2.655-0.136-3.677-0.407
		c-1.021-0.271-1.889-0.676-2.604-1.213c-0.716-0.538-1.295-1.146-1.739-1.827c-0.443-0.681-0.813-1.529-1.109-2.545l6.096-0.666
		c0.148,0.977,0.493,1.719,1.036,2.227c0.542,0.508,1.188,0.762,1.938,0.762c0.838,0,1.531-0.317,2.078-0.954
		c0.548-0.636,0.821-1.585,0.821-2.848c0-1.292-0.276-2.239-0.828-2.841c-0.553-0.602-1.287-0.903-2.205-0.903
		c-0.582,0-1.145,0.144-1.687,0.43c-0.404,0.207-0.849,0.582-1.332,1.124l-5.134-0.739L175.411,26.784z"/>
	<path fill="#808080" d="M193.181,37.541c0-4.123,0.742-7.008,2.227-8.656s3.745-2.471,6.783-2.471c1.46,0,2.658,0.18,3.596,0.54
		c0.938,0.36,1.701,0.829,2.293,1.406s1.059,1.184,1.398,1.82c0.341,0.636,0.614,1.378,0.821,2.227
		c0.404,1.618,0.606,3.304,0.606,5.06c0,3.936-0.666,6.815-1.997,8.641c-1.332,1.825-3.625,2.737-6.88,2.737
		c-1.825,0-3.3-0.291-4.424-0.873c-1.125-0.582-2.047-1.436-2.767-2.56c-0.523-0.799-0.931-1.892-1.221-3.277
		C193.326,40.749,193.181,39.218,193.181,37.541z M199.158,37.556c0,2.762,0.244,4.648,0.732,5.659s1.195,1.517,2.123,1.517
		c0.611,0,1.142-0.215,1.59-0.644c0.449-0.43,0.779-1.107,0.991-2.034c0.213-0.928,0.318-2.373,0.318-4.336
		c0-2.88-0.244-4.815-0.732-5.807c-0.488-0.991-1.221-1.487-2.197-1.487c-0.996,0-1.716,0.506-2.16,1.517
		C199.38,32.951,199.158,34.823,199.158,37.556z"/>
	<path fill="#808080" d="M213.392,37.541c0-4.123,0.742-7.008,2.227-8.656s3.745-2.471,6.783-2.471c1.46,0,2.658,0.18,3.596,0.54
		c0.938,0.36,1.701,0.829,2.293,1.406s1.059,1.184,1.398,1.82c0.341,0.636,0.614,1.378,0.821,2.227
		c0.404,1.618,0.606,3.304,0.606,5.06c0,3.936-0.666,6.815-1.997,8.641c-1.332,1.825-3.625,2.737-6.88,2.737
		c-1.825,0-3.3-0.291-4.424-0.873c-1.125-0.582-2.047-1.436-2.767-2.56c-0.523-0.799-0.931-1.892-1.221-3.277
		C213.537,40.749,213.392,39.218,213.392,37.541z M219.369,37.556c0,2.762,0.244,4.648,0.732,5.659s1.195,1.517,2.123,1.517
		c0.611,0,1.142-0.215,1.59-0.644c0.449-0.43,0.779-1.107,0.991-2.034c0.213-0.928,0.318-2.373,0.318-4.336
		c0-2.88-0.244-4.815-0.732-5.807c-0.488-0.991-1.221-1.487-2.197-1.487c-0.996,0-1.716,0.506-2.16,1.517
		C219.591,32.951,219.369,34.823,219.369,37.556z"/>
	<path fill="#808080" d="M233.603,37.541c0-4.123,0.742-7.008,2.227-8.656s3.745-2.471,6.783-2.471c1.46,0,2.658,0.18,3.596,0.54
		c0.938,0.36,1.701,0.829,2.293,1.406s1.059,1.184,1.398,1.82c0.341,0.636,0.614,1.378,0.821,2.227
		c0.404,1.618,0.606,3.304,0.606,5.06c0,3.936-0.666,6.815-1.997,8.641c-1.332,1.825-3.625,2.737-6.88,2.737
		c-1.825,0-3.3-0.291-4.424-0.873c-1.125-0.582-2.047-1.436-2.767-2.56c-0.523-0.799-0.931-1.892-1.221-3.277
		C233.748,40.749,233.603,39.218,233.603,37.541z M239.58,37.556c0,2.762,0.244,4.648,0.732,5.659s1.195,1.517,2.123,1.517
		c0.611,0,1.142-0.215,1.59-0.644c0.449-0.43,0.779-1.107,0.991-2.034c0.213-0.928,0.318-2.373,0.318-4.336
		c0-2.88-0.244-4.815-0.732-5.807c-0.488-0.991-1.221-1.487-2.197-1.487c-0.996,0-1.716,0.506-2.16,1.517
		C239.802,32.951,239.58,34.823,239.58,37.556z"/>
</g>
<g enable-background="new    ">
	<path fill="#B3B3B3" d="M85.611,61.045h12.356v3.248h-4.146v9.906h-4.064v-9.906h-4.146V61.045z"/>
	<path fill="#B3B3B3" d="M97.869,69.462c0-1.454,0.49-2.652,1.471-3.594c0.981-0.942,2.306-1.414,3.975-1.414
		c1.908,0,3.35,0.554,4.325,1.66c0.784,0.892,1.175,1.989,1.175,3.293c0,1.466-0.486,2.667-1.458,3.604
		c-0.972,0.936-2.316,1.404-4.033,1.404c-1.532,0-2.77-0.39-3.715-1.167C98.449,72.285,97.869,71.022,97.869,69.462z
		 M101.529,69.452c0,0.85,0.172,1.478,0.516,1.885c0.344,0.407,0.776,0.61,1.296,0.61c0.526,0,0.959-0.2,1.297-0.602
		c0.338-0.4,0.507-1.044,0.507-1.929c0-0.826-0.17-1.44-0.511-1.845c-0.341-0.403-0.763-0.605-1.266-0.605
		c-0.532,0-0.972,0.205-1.319,0.615C101.703,67.991,101.529,68.615,101.529,69.452z"/>
	<path fill="#B3B3B3" d="M110.7,61.045h3.661v13.154H110.7V61.045z"/>
	<path fill="#B3B3B3" d="M116.82,61.045h3.661v13.154h-3.661V61.045z"/>
	<path fill="#B3B3B3" d="M129.202,61.045h10.05v2.826h-5.967v2.297h5.097v2.656h-5.097v5.375h-4.083V61.045z"/>
	<path fill="#B3B3B3" d="M140.607,64.67h3.418v1.562c0.329-0.676,0.668-1.142,1.019-1.396s0.782-0.382,1.297-0.382
		c0.538,0,1.128,0.168,1.768,0.503l-1.131,2.603c-0.431-0.18-0.771-0.27-1.022-0.27c-0.479,0-0.85,0.197-1.113,0.592
		c-0.377,0.557-0.564,1.598-0.564,3.123v3.194h-3.67V64.67z"/>
	<path fill="#B3B3B3" d="M159.604,70.341h-7.322c0.065,0.586,0.225,1.022,0.475,1.31c0.354,0.413,0.814,0.619,1.383,0.619
		c0.358,0,0.699-0.089,1.022-0.269c0.197-0.113,0.409-0.314,0.638-0.602l3.598,0.332c-0.551,0.957-1.215,1.644-1.992,2.06
		s-1.893,0.624-3.347,0.624c-1.263,0-2.255-0.179-2.979-0.534c-0.724-0.356-1.323-0.921-1.799-1.696
		c-0.476-0.774-0.713-1.686-0.713-2.732c0-1.489,0.477-2.694,1.431-3.616c0.954-0.921,2.271-1.382,3.952-1.382
		c1.364,0,2.441,0.207,3.23,0.619c0.79,0.413,1.391,1.012,1.805,1.795c0.412,0.784,0.619,1.804,0.619,3.06V70.341z M155.889,68.591
		c-0.072-0.705-0.262-1.211-0.57-1.517c-0.309-0.305-0.713-0.457-1.216-0.457c-0.581,0-1.044,0.23-1.392,0.69
		c-0.221,0.287-0.361,0.715-0.421,1.283H155.889z"/>
	<path fill="#B3B3B3" d="M171.86,70.341h-7.322c0.065,0.586,0.225,1.022,0.476,1.31c0.354,0.413,0.813,0.619,1.382,0.619
		c0.358,0,0.7-0.089,1.022-0.269c0.197-0.113,0.41-0.314,0.638-0.602l3.599,0.332c-0.551,0.957-1.215,1.644-1.992,2.06
		s-1.894,0.624-3.348,0.624c-1.262,0-2.255-0.179-2.979-0.534c-0.725-0.356-1.324-0.921-1.799-1.696
		c-0.477-0.774-0.714-1.686-0.714-2.732c0-1.489,0.478-2.694,1.431-3.616c0.955-0.921,2.271-1.382,3.953-1.382
		c1.363,0,2.441,0.207,3.23,0.619c0.789,0.413,1.391,1.012,1.804,1.795c0.413,0.784,0.619,1.804,0.619,3.06V70.341z M168.146,68.591
		c-0.071-0.705-0.262-1.211-0.569-1.517c-0.309-0.305-0.714-0.457-1.217-0.457c-0.58,0-1.043,0.23-1.391,0.69
		c-0.221,0.287-0.361,0.715-0.422,1.283H168.146z"/>
</g>
<g enable-background="new    ">
	<path fill="#B3B3B3" d="M14.085,12.661c0.429,0.298,0.709,0.484,0.84,0.561c0.197,0.11,0.462,0.239,0.795,0.386l-0.954,1.923
		c-0.479-0.232-0.954-0.509-1.423-0.829c-0.469-0.32-0.797-0.562-0.984-0.723c-0.757,0.328-1.706,0.492-2.847,0.492
		c-1.686,0-3.016-0.439-3.99-1.317c-1.151-1.04-1.726-2.501-1.726-4.384c0-1.827,0.503-3.246,1.51-4.258
		c1.007-1.013,2.414-1.519,4.221-1.519c1.842,0,3.264,0.495,4.266,1.484s1.503,2.404,1.503,4.247
		C15.297,10.364,14.893,11.677,14.085,12.661z M11.458,10.904c0.272-0.489,0.409-1.221,0.409-2.195c0-1.12-0.208-1.92-0.625-2.399
		s-0.991-0.72-1.722-0.72c-0.682,0-1.234,0.245-1.658,0.734c-0.424,0.49-0.636,1.255-0.636,2.294c0,1.212,0.207,2.062,0.621,2.552
		c0.414,0.489,0.981,0.734,1.704,0.734c0.232,0,0.452-0.023,0.659-0.068c-0.288-0.277-0.742-0.54-1.363-0.787l0.537-1.234
		c0.303,0.056,0.539,0.124,0.708,0.204c0.169,0.081,0.499,0.293,0.988,0.637C11.196,10.735,11.322,10.819,11.458,10.904z"/>
	<path fill="#B3B3B3" d="M25.411,14.281h-2.877v-1.302c-0.429,0.534-0.862,0.916-1.298,1.143c-0.437,0.228-0.973,0.341-1.609,0.341
		c-0.848,0-1.513-0.254-1.995-0.761s-0.723-1.288-0.723-2.343V6.241h3.097v4.421c0,0.505,0.093,0.863,0.28,1.075
		c0.187,0.212,0.449,0.318,0.788,0.318c0.368,0,0.67-0.142,0.905-0.424c0.234-0.283,0.352-0.79,0.352-1.522V6.241h3.081V14.281z"/>
	<path fill="#B3B3B3" d="M36.207,11.025h-6.178c0.056,0.495,0.189,0.863,0.401,1.105c0.298,0.349,0.687,0.522,1.166,0.522
		c0.303,0,0.59-0.075,0.863-0.227c0.167-0.096,0.346-0.266,0.538-0.508l3.036,0.28c-0.464,0.808-1.025,1.387-1.681,1.737
		c-0.656,0.351-1.598,0.526-2.824,0.526c-1.065,0-1.903-0.15-2.513-0.45c-0.611-0.301-1.117-0.777-1.518-1.431
		c-0.401-0.654-0.602-1.423-0.602-2.306c0-1.257,0.403-2.273,1.208-3.051c0.805-0.777,1.917-1.166,3.335-1.166
		c1.151,0,2.06,0.174,2.726,0.522c0.666,0.348,1.173,0.853,1.521,1.514c0.349,0.661,0.522,1.522,0.522,2.582V11.025z M33.073,9.55
		c-0.061-0.596-0.221-1.022-0.48-1.279c-0.26-0.258-0.602-0.387-1.026-0.387c-0.49,0-0.881,0.194-1.173,0.583
		c-0.187,0.242-0.306,0.604-0.356,1.083H33.073z"/>
	<path fill="#B3B3B3" d="M37.078,12.048l3.059-0.288c0.126,0.364,0.303,0.624,0.53,0.78s0.53,0.234,0.909,0.234
		c0.414,0,0.734-0.088,0.961-0.265c0.176-0.131,0.265-0.294,0.265-0.491c0-0.222-0.116-0.393-0.348-0.514
		c-0.167-0.086-0.608-0.191-1.325-0.317c-1.07-0.187-1.813-0.359-2.229-0.519c-0.417-0.158-0.768-0.427-1.053-0.806
		c-0.285-0.378-0.428-0.809-0.428-1.293c0-0.529,0.154-0.985,0.462-1.369c0.308-0.383,0.732-0.669,1.272-0.858
		c0.54-0.188,1.264-0.283,2.173-0.283c0.959,0,1.667,0.073,2.124,0.22c0.457,0.146,0.838,0.373,1.143,0.681
		c0.306,0.309,0.559,0.725,0.761,1.25L42.43,8.497c-0.076-0.257-0.202-0.446-0.379-0.567c-0.242-0.162-0.535-0.242-0.878-0.242
		c-0.348,0-0.602,0.062-0.761,0.185c-0.159,0.124-0.239,0.273-0.239,0.45c0,0.196,0.101,0.345,0.303,0.446
		c0.202,0.101,0.641,0.191,1.317,0.271c1.024,0.116,1.787,0.277,2.287,0.484c0.5,0.207,0.882,0.502,1.147,0.885
		c0.265,0.383,0.397,0.805,0.397,1.263c0,0.464-0.14,0.916-0.42,1.354s-0.722,0.787-1.325,1.047s-1.425,0.39-2.464,0.39
		c-1.469,0-2.515-0.209-3.138-0.628C37.654,13.416,37.254,12.82,37.078,12.048z"/>
	<path fill="#B3B3B3" d="M50.811,3.183v3.059h1.696v2.256h-1.696v2.849c0,0.343,0.033,0.569,0.099,0.68
		c0.101,0.172,0.277,0.257,0.53,0.257c0.227,0,0.545-0.065,0.954-0.196l0.228,2.127c-0.762,0.167-1.474,0.25-2.135,0.25
		c-0.767,0-1.333-0.099-1.696-0.295s-0.632-0.495-0.806-0.896c-0.174-0.401-0.261-1.05-0.261-1.947V8.497h-1.136V6.241h1.136V4.765
		L50.811,3.183z"/>
	<path fill="#B3B3B3" d="M54.089,3.183h3.081v2.097h-3.081V3.183z M54.089,6.241h3.081v8.04h-3.081V6.241z"/>
	<path fill="#B3B3B3" d="M58.76,10.284c0-1.227,0.414-2.237,1.242-3.032c0.828-0.795,1.945-1.192,3.354-1.192
		c1.61,0,2.827,0.467,3.649,1.4c0.661,0.752,0.992,1.679,0.992,2.778c0,1.237-0.41,2.25-1.23,3.04s-1.955,1.185-3.403,1.185
		c-1.292,0-2.337-0.328-3.134-0.984C59.25,12.666,58.76,11.602,58.76,10.284z M61.849,10.276c0,0.717,0.145,1.247,0.435,1.59
		c0.291,0.344,0.655,0.515,1.094,0.515c0.444,0,0.809-0.169,1.094-0.507s0.428-0.881,0.428-1.628c0-0.696-0.144-1.215-0.432-1.556
		C64.181,8.35,63.825,8.18,63.401,8.18c-0.449,0-0.82,0.173-1.113,0.519C61.995,9.044,61.849,9.569,61.849,10.276z"/>
	<path fill="#B3B3B3" d="M69.48,6.241h2.869v1.31c0.429-0.535,0.863-0.917,1.302-1.146c0.439-0.229,0.974-0.345,1.605-0.345
		c0.853,0,1.521,0.254,2.002,0.761s0.723,1.291,0.723,2.351v5.11h-3.096V9.86c0-0.505-0.094-0.862-0.28-1.071
		c-0.187-0.21-0.449-0.314-0.788-0.314c-0.374,0-0.676,0.142-0.908,0.424c-0.232,0.283-0.348,0.79-0.348,1.521v3.861H69.48V6.241z"
		/>
	<path fill="#B3B3B3" d="M79.277,12.048l3.059-0.288c0.126,0.364,0.303,0.624,0.53,0.78s0.53,0.234,0.909,0.234
		c0.414,0,0.734-0.088,0.961-0.265C84.912,12.379,85,12.216,85,12.019c0-0.222-0.116-0.393-0.348-0.514
		c-0.167-0.086-0.608-0.191-1.325-0.317c-1.07-0.187-1.813-0.359-2.229-0.519c-0.417-0.158-0.768-0.427-1.053-0.806
		c-0.285-0.378-0.428-0.809-0.428-1.293c0-0.529,0.154-0.985,0.462-1.369c0.308-0.383,0.732-0.669,1.272-0.858
		c0.54-0.188,1.264-0.283,2.173-0.283c0.959,0,1.667,0.073,2.124,0.22c0.457,0.146,0.838,0.373,1.143,0.681
		c0.306,0.309,0.559,0.725,0.761,1.25l-2.922,0.287C84.554,8.24,84.427,8.051,84.25,7.93c-0.242-0.162-0.535-0.242-0.878-0.242
		c-0.348,0-0.602,0.062-0.761,0.185c-0.159,0.124-0.239,0.273-0.239,0.45c0,0.196,0.101,0.345,0.303,0.446
		c0.202,0.101,0.641,0.191,1.317,0.271c1.024,0.116,1.787,0.277,2.287,0.484c0.5,0.207,0.882,0.502,1.147,0.885
		c0.265,0.383,0.397,0.805,0.397,1.263c0,0.464-0.14,0.916-0.42,1.354s-0.722,0.787-1.325,1.047s-1.425,0.39-2.464,0.39
		c-1.469,0-2.515-0.209-3.138-0.628C79.854,13.416,79.453,12.82,79.277,12.048z"/>
	<path fill="#B3B3B3" d="M94.305,10.799h-2.877v-0.288c0-0.489,0.056-0.887,0.167-1.192c0.111-0.305,0.276-0.584,0.496-0.836
		c0.22-0.253,0.713-0.697,1.48-1.333c0.409-0.333,0.613-0.639,0.613-0.916s-0.082-0.493-0.246-0.647
		c-0.164-0.153-0.413-0.23-0.746-0.23c-0.358,0-0.655,0.118-0.89,0.355c-0.234,0.237-0.385,0.651-0.45,1.242L88.915,6.59
		c0.101-1.08,0.493-1.95,1.177-2.608c0.684-0.659,1.732-0.988,3.146-0.988c1.1,0,1.989,0.229,2.665,0.689
		c0.918,0.62,1.378,1.448,1.378,2.482c0,0.43-0.119,0.844-0.356,1.242s-0.722,0.886-1.454,1.461
		c-0.51,0.404-0.832,0.729-0.965,0.973C94.372,10.086,94.305,10.405,94.305,10.799z M91.33,11.563h3.081v2.718H91.33V11.563z"/>
	<path fill="#B3B3B3" d="M103.359,3.183h10.425v2.74h-3.498v8.358h-3.43V5.923h-3.498V3.183z"/>
	<path fill="#B3B3B3" d="M117.153,8.846l-2.945-0.311c0.111-0.515,0.271-0.92,0.48-1.215c0.21-0.296,0.512-0.552,0.905-0.769
		c0.282-0.156,0.671-0.277,1.166-0.363c0.494-0.086,1.029-0.129,1.604-0.129c0.924,0,1.666,0.052,2.226,0.155
		c0.561,0.104,1.027,0.319,1.4,0.647c0.263,0.227,0.47,0.549,0.621,0.965s0.228,0.813,0.228,1.192v3.551
		c0,0.379,0.023,0.675,0.071,0.89s0.153,0.488,0.314,0.821h-2.892c-0.116-0.207-0.192-0.364-0.228-0.474
		c-0.035-0.108-0.07-0.278-0.105-0.511c-0.404,0.389-0.806,0.666-1.204,0.833c-0.545,0.222-1.179,0.333-1.9,0.333
		c-0.959,0-1.687-0.222-2.184-0.666c-0.498-0.444-0.746-0.992-0.746-1.643c0-0.611,0.179-1.113,0.537-1.507s1.02-0.687,1.983-0.878
		c1.156-0.232,1.905-0.396,2.249-0.488c0.343-0.094,0.706-0.216,1.09-0.367c0-0.379-0.078-0.644-0.234-0.795
		c-0.156-0.152-0.432-0.228-0.825-0.228c-0.505,0-0.884,0.081-1.136,0.242C117.434,8.26,117.274,8.497,117.153,8.846z
		 M119.825,10.466c-0.424,0.151-0.865,0.285-1.324,0.401c-0.626,0.166-1.022,0.33-1.189,0.492c-0.171,0.166-0.257,0.355-0.257,0.567
		c0,0.242,0.084,0.44,0.254,0.595c0.169,0.153,0.417,0.23,0.745,0.23c0.344,0,0.663-0.083,0.958-0.25
		c0.295-0.166,0.505-0.369,0.628-0.609c0.124-0.239,0.186-0.551,0.186-0.935V10.466z"/>
	<path fill="#B3B3B3" d="M124.792,3.183h3.089v11.099h-3.089V3.183z"/>
	<path fill="#B3B3B3" d="M129.85,3.183h3.149v5.729l2.301-2.67h3.793l-2.884,2.816l3.051,5.224h-3.472l-1.629-3.223l-1.16,1.133
		v2.09h-3.149V3.183z"/>
	<path fill="#B3B3B3" d="M149.079,3.183v3.059h1.696v2.256h-1.696v2.849c0,0.343,0.033,0.569,0.099,0.68
		c0.101,0.172,0.277,0.257,0.529,0.257c0.228,0,0.546-0.065,0.954-0.196l0.228,2.127c-0.763,0.167-1.474,0.25-2.135,0.25
		c-0.768,0-1.333-0.099-1.696-0.295s-0.632-0.495-0.807-0.896c-0.174-0.401-0.261-1.05-0.261-1.947V8.497h-1.136V6.241h1.136V4.765
		L149.079,3.183z"/>
	<path fill="#B3B3B3" d="M151.864,10.284c0-1.227,0.414-2.237,1.241-3.032c0.828-0.795,1.946-1.192,3.354-1.192
		c1.609,0,2.826,0.467,3.648,1.4c0.661,0.752,0.992,1.679,0.992,2.778c0,1.237-0.41,2.25-1.23,3.04s-1.954,1.185-3.403,1.185
		c-1.292,0-2.337-0.328-3.134-0.984C152.354,12.666,151.864,11.602,151.864,10.284z M154.953,10.276c0,0.717,0.145,1.247,0.436,1.59
		c0.29,0.344,0.654,0.515,1.094,0.515c0.444,0,0.809-0.169,1.094-0.507s0.428-0.881,0.428-1.628c0-0.696-0.144-1.215-0.432-1.556
		c-0.287-0.341-0.644-0.511-1.067-0.511c-0.449,0-0.82,0.173-1.112,0.519C155.1,9.044,154.953,9.569,154.953,10.276z"/>
	<path fill="#B3B3B3" d="M170.564,8.846l-2.945-0.311c0.111-0.515,0.271-0.92,0.48-1.215c0.21-0.296,0.512-0.552,0.905-0.769
		c0.282-0.156,0.671-0.277,1.166-0.363c0.494-0.086,1.029-0.129,1.604-0.129c0.924,0,1.666,0.052,2.226,0.155
		c0.561,0.104,1.027,0.319,1.4,0.647c0.263,0.227,0.47,0.549,0.621,0.965s0.228,0.813,0.228,1.192v3.551
		c0,0.379,0.023,0.675,0.071,0.89s0.153,0.488,0.314,0.821h-2.892c-0.116-0.207-0.192-0.364-0.228-0.474
		c-0.035-0.108-0.07-0.278-0.105-0.511c-0.404,0.389-0.806,0.666-1.204,0.833c-0.545,0.222-1.179,0.333-1.9,0.333
		c-0.959,0-1.687-0.222-2.184-0.666c-0.498-0.444-0.746-0.992-0.746-1.643c0-0.611,0.179-1.113,0.537-1.507s1.02-0.687,1.983-0.878
		c1.156-0.232,1.905-0.396,2.249-0.488c0.343-0.094,0.706-0.216,1.09-0.367c0-0.379-0.078-0.644-0.234-0.795
		c-0.156-0.152-0.432-0.228-0.825-0.228c-0.505,0-0.884,0.081-1.136,0.242C170.845,8.26,170.686,8.497,170.564,8.846z
		 M173.236,10.466c-0.424,0.151-0.865,0.285-1.324,0.401c-0.626,0.166-1.022,0.33-1.189,0.492c-0.171,0.166-0.257,0.355-0.257,0.567
		c0,0.242,0.084,0.44,0.254,0.595c0.169,0.153,0.417,0.23,0.745,0.23c0.344,0,0.663-0.083,0.958-0.25
		c0.295-0.166,0.505-0.369,0.628-0.609c0.124-0.239,0.186-0.551,0.186-0.935V10.466z"/>
	<path fill="#B3B3B3" d="M178.098,6.241h2.869v1.31c0.429-0.535,0.862-0.917,1.302-1.146s0.975-0.345,1.605-0.345
		c0.853,0,1.521,0.254,2.002,0.761c0.482,0.507,0.723,1.291,0.723,2.351v5.11h-3.096V9.86c0-0.505-0.094-0.862-0.28-1.071
		c-0.187-0.21-0.449-0.314-0.787-0.314c-0.374,0-0.677,0.142-0.909,0.424c-0.231,0.283-0.348,0.79-0.348,1.521v3.861h-3.081V6.241z"
		/>
	<path fill="#B3B3B3" d="M193.807,3.183h9.191v2.369h-5.754v1.765h5.337V9.58h-5.337v2.188h5.92v2.514h-9.357V3.183z"/>
	<path fill="#B3B3B3" d="M204.117,6.241h3.656l1.276,2.241l1.487-2.241h3.399l-2.743,3.831l2.94,4.209h-3.597l-1.487-2.589
		l-1.745,2.589h-3.339l2.92-4.209L204.117,6.241z"/>
	<path fill="#B3B3B3" d="M215.163,17.34V6.241h2.885V7.43c0.398-0.5,0.765-0.838,1.098-1.015c0.449-0.237,0.946-0.355,1.491-0.355
		c1.075,0,1.906,0.411,2.494,1.234c0.588,0.822,0.883,1.839,0.883,3.051c0,1.337-0.321,2.358-0.962,3.062s-1.451,1.056-2.43,1.056
		c-0.475,0-0.908-0.081-1.299-0.242c-0.392-0.161-0.741-0.401-1.049-0.719v3.838H215.163z M218.252,10.284
		c0,0.636,0.134,1.107,0.401,1.415c0.268,0.309,0.605,0.462,1.015,0.462c0.358,0,0.658-0.147,0.9-0.442
		c0.242-0.296,0.363-0.796,0.363-1.503c0-0.651-0.126-1.129-0.378-1.435c-0.253-0.306-0.561-0.458-0.924-0.458
		c-0.394,0-0.722,0.154-0.984,0.462S218.252,9.593,218.252,10.284z"/>
	<path fill="#B3B3B3" d="M234.416,11.025h-6.178c0.055,0.495,0.188,0.863,0.401,1.105c0.297,0.349,0.686,0.522,1.165,0.522
		c0.304,0,0.591-0.075,0.863-0.227c0.167-0.096,0.346-0.266,0.538-0.508l3.035,0.28c-0.464,0.808-1.024,1.387-1.681,1.737
		s-1.597,0.526-2.823,0.526c-1.065,0-1.903-0.15-2.514-0.45c-0.611-0.301-1.117-0.777-1.519-1.431
		c-0.4-0.654-0.602-1.423-0.602-2.306c0-1.257,0.402-2.273,1.208-3.051c0.805-0.777,1.916-1.166,3.335-1.166
		c1.15,0,2.059,0.174,2.725,0.522c0.667,0.348,1.174,0.853,1.522,1.514c0.348,0.661,0.522,1.522,0.522,2.582V11.025z M231.281,9.55
		c-0.061-0.596-0.221-1.022-0.48-1.279c-0.26-0.258-0.602-0.387-1.026-0.387c-0.489,0-0.881,0.194-1.173,0.583
		c-0.187,0.242-0.306,0.604-0.356,1.083H231.281z"/>
	<path fill="#B3B3B3" d="M235.862,6.241h2.884v1.317c0.277-0.57,0.564-0.963,0.859-1.178c0.295-0.214,0.66-0.321,1.094-0.321
		c0.454,0,0.951,0.142,1.492,0.424l-0.954,2.195c-0.363-0.151-0.651-0.227-0.863-0.227c-0.404,0-0.717,0.166-0.938,0.499
		c-0.318,0.47-0.478,1.348-0.478,2.635v2.695h-3.096V6.241z"/>
	<path fill="#B3B3B3" d="M247.202,3.183v3.059h1.696v2.256h-1.696v2.849c0,0.343,0.033,0.569,0.099,0.68
		c0.101,0.172,0.277,0.257,0.529,0.257c0.228,0,0.546-0.065,0.954-0.196l0.228,2.127c-0.763,0.167-1.474,0.25-2.135,0.25
		c-0.768,0-1.333-0.099-1.696-0.295s-0.632-0.495-0.807-0.896c-0.174-0.401-0.261-1.05-0.261-1.947V8.497h-1.136V6.241h1.136V4.765
		L247.202,3.183z"/>
</g>
<g display="none">
	<g display="inline">
		<defs>
			<rect id="SVGID_1_" x="-1" y="-16" width="77" height="77"/>
		</defs>
		<clipPath id="SVGID_2_">
			<use xlink:href="#SVGID_1_"  overflow="visible"/>
		</clipPath>
		<g clip-path="url(#SVGID_2_)">
		</g>
	</g>
</g>
</svg>
